<svg id="Capa_1" enable-background="new 0 0 510 510" height="512" viewBox="0 0 510 510" width="512" xmlns="http://www.w3.org/2000/svg" xmlns:xlink="http://www.w3.org/1999/xlink"><linearGradient id="lg1"><stop offset="0" stop-color="#d8ecfe"/><stop offset=".5667" stop-color="#b3dafe"/><stop offset=".9955" stop-color="#8ac9fe"/></linearGradient><linearGradient id="SVGID_1_" gradientTransform="matrix(1 0 0 -1 0 817.103)" gradientUnits="userSpaceOnUse" x1="79.203" x2="282.861" xlink:href="#lg1" y1="648.449" y2="648.449"/><linearGradient id="SVGID_2_" gradientUnits="userSpaceOnUse" x1="-62.947" x2="237.754" xlink:href="#lg1" y1="168.657" y2="168.657"/><linearGradient id="lg2"><stop offset="0" stop-color="#eaf6ff"/><stop offset=".5213" stop-color="#d8ecfe"/><stop offset="1" stop-color="#b3dafe"/></linearGradient><linearGradient id="SVGID_3_" gradientTransform="matrix(1 0 0 -1 0 817.103)" gradientUnits="userSpaceOnUse" x1="13.62" x2="205.431" xlink:href="#lg2" y1="680.846" y2="680.846"/><linearGradient id="SVGID_4_" gradientUnits="userSpaceOnUse" x1="4" x2="108.389" xlink:href="#lg2" y1="65.644" y2="65.644"/><linearGradient id="SVGID_5_" gradientUnits="userSpaceOnUse" x1="-70.995" x2="149.286" xlink:href="#lg2" y1="136.256" y2="136.256"/><linearGradient id="SVGID_6_" gradientUnits="userSpaceOnUse" x1="196.593" x2="499.712" xlink:href="#lg2" y1="224.963" y2="224.963"/><linearGradient id="SVGID_7_" gradientUnits="userSpaceOnUse" x1="283.493" x2="610.943" xlink:href="#lg1" y1="224.962" y2="224.962"/><linearGradient id="SVGID_8_" gradientUnits="userSpaceOnUse" x1="260.807" x2="485.908" xlink:href="#lg1" y1="224.963" y2="224.963"/><linearGradient id="SVGID_9_" gradientUnits="userSpaceOnUse" x1="282.091" x2="322.303" xlink:href="#lg2" y1="300.5" y2="300.5"/><linearGradient id="SVGID_10_" gradientUnits="userSpaceOnUse" x1="145.007" x2="200.102" xlink:href="#lg2" y1="377.54" y2="377.54"/><linearGradient id="SVGID_11_" gradientUnits="userSpaceOnUse" x1="240.623" x2="376.562" xlink:href="#lg2" y1="420.203" y2="420.203"/><linearGradient id="SVGID_12_" gradientUnits="userSpaceOnUse" x1="272" x2="362.2" xlink:href="#lg1" y1="420.206" y2="420.206"/><g><g><path d="m269.601 0h-204.858l85.595 324.339c4.563 17.291 29.106 17.291 33.669 0z" fill="url(#SVGID_1_)"/><path d="m171.14.004 20.697 62.781c7.676 23.285 8.432 48.297 2.175 72.003l-43.677 165.485c-2.081 7.885-2.08 16.176.005 24.061 4.56 17.3 29.1 17.3 33.67 0l85.59-324.33z" fill="url(#SVGID_2_)"/><path d="m192.943 0h-161.714c-21.256 0-36.292 20.788-29.637 40.976l72.386 219.577c5.257 15.946 27.814 15.946 33.071 0z" fill="url(#SVGID_3_)"/><path d="m31.229 0c-1.45 0-2.868.105-4.256.292l38.64 123.873c2.962 9.496 15.673 9.496 18.636 0l38.732-124.165z" fill="url(#SVGID_4_)"/><path d="m152.923 0-78.945 239.473c-2.257 6.845-2.257 14.234 0 21.079 5.257 15.946 27.814 15.946 33.071 0l85.894-260.552z" fill="url(#SVGID_5_)"/><path d="m478.784 0h-282.635l85.894 260.552c5.257 15.946 27.814 15.946 33.071 0l7.198-21.836c6.127-18.586 32.953-16.906 36.714 2.299l38.151 194.845c3.672 18.754 30.501 18.754 34.173 0l78.058-398.658c3.774-19.275-10.983-37.202-30.624-37.202z" fill="url(#SVGID_6_)"/><path d="m478.78 0h-166.95c3.683 18.821 20.176 32.4 39.354 32.4 15.581 0 26.602 15.238 21.724 30.036l-6.81 20.657c-15.63 47.413-18.8 98.05-9.206 147.043l40.288 205.724c3.67 18.75 30.5 18.75 34.17 0l78.06-398.66c3.77-19.27-10.99-37.2-30.63-37.2z" fill="url(#SVGID_7_)"/><path d="m478.784 0h-40.02c19.641 0 34.398 17.927 30.624 37.202l-72.211 368.795c-1.931 9.861-1.931 20.002 0 29.863 3.672 18.754 30.501 18.754 34.173 0l78.058-398.658c3.774-19.275-10.983-37.202-30.624-37.202z" fill="url(#SVGID_8_)"/></g><circle cx="299.51" cy="300.5" fill="url(#SVGID_9_)" r="13.167"/><circle cx="168.873" cy="377.54" fill="url(#SVGID_10_)" r="18.04"/><path d="m304.51 381.79v-2.125c0-7.21 2.89-14.066 7.862-19.287 3.3-3.466 5.212-8.264 4.842-13.509-.595-8.436-7.271-15.418-15.676-16.349-10.711-1.187-19.777 7.166-19.777 17.637 0 4.839 1.938 9.222 5.08 12.42 5.097 5.19 7.67 12.355 7.67 19.629v1.585c0 8.518-3.83 16.692-10.654 21.791-16.86 12.596-28.857 42.835-28.857 61.908 0 24.582 19.928 44.51 44.51 44.51s44.51-19.928 44.51-44.51c0-19.073-11.997-49.312-28.856-61.909-6.824-5.099-10.654-13.273-10.654-21.791z" fill="url(#SVGID_11_)"/><path d="m315.164 403.581c-6.824-5.099-10.654-13.273-10.654-21.791v-2.125c0-7.212 2.894-14.067 7.866-19.292 3.301-3.469 5.212-8.272 4.837-13.521-.608-8.51-7.391-15.51-15.881-16.356-.406-.04-.81-.067-1.211-.08-6.402-.212-10.753 6.163-8.747 12.247.443 1.342.727 2.751.829 4.205.175 2.479-.16 4.858-.91 7.044-1.833 5.342-1.628 11.137.578 16.336 1.44 3.392 2.639 7.081 2.639 9.957v1.585c0 .444-.01.886-.031 1.328-.656 13.979 2.458 27.901 9.988 39.697 7.486 11.727 14.542 26.951 14.542 42.676 0 20.239-13.513 37.311-32.005 42.716 3.969 1.16 8.162 1.794 12.505 1.794 24.582 0 44.51-19.928 44.51-44.51.001-19.073-11.996-49.313-28.855-61.91z" fill="url(#SVGID_12_)"/></g></svg>