<?xml version="1.0" encoding="iso-8859-1"?>
<!-- Generator: Adobe Illustrator 19.0.0, SVG Export Plug-In . SVG Version: 6.00 Build 0)  -->
<svg version="1.1" id="Capa_1" xmlns="http://www.w3.org/2000/svg" xmlns:xlink="http://www.w3.org/1999/xlink" x="0px" y="0px"
	 viewBox="0 0 480 480" style="enable-background:new 0 0 480 480;" xml:space="preserve">
<path style="fill:#4D2B00;" d="M248,416h32v56h-32V416z"/>
<g>
	<path style="fill:#505968;" d="M440,80H96c-4.418,0-8-3.582-8-8s3.582-8,8-8h344c13.255,0,24-10.745,24-24s-10.745-24-24-24
		s-24,10.745-24,24c0,4.418-3.582,8-8,8s-8-3.582-8-8c0-22.091,17.909-40,40-40s40,17.909,40,40S462.091,80,440,80z"/>
	<path style="fill:#505968;" d="M352,176c-22.08-0.026-39.974-17.92-40-40c0-4.418,3.582-8,8-8s8,3.582,8,8
		c0,13.255,10.745,24,24,24s24-10.745,24-24s-10.745-24-24-24H120c-4.418,0-8-3.582-8-8s3.582-8,8-8h232c22.091,0,40,17.909,40,40
		S374.091,176,352,176z"/>
</g>
<path style="fill:#3FD100;" d="M472,480H8c-4.418,0-8-3.582-8-8s3.582-8,8-8h464c4.418,0,8,3.582,8,8S476.418,480,472,480z"/>
<path style="fill:#2F9D00;" d="M248,424c-26.994-4.519-45.864-29.189-43.16-56.424c1.954-19.522,14.231-36.496,32.16-44.464
	c28.087-12.486,52.051-32.691,69.104-58.264c12.688-19.04,37.156-26.313,58.184-17.296c11.706,5.016,18.75,17.102,17.344,29.76
	l-3.56,32C372.004,364.04,333.123,409.509,280,424H248z"/>
<g>
	<path style="fill:#505968;" d="M224,296H8c-4.418,0-8-3.582-8-8s3.582-8,8-8h216c13.255,0,24-10.745,24-24s-10.745-24-24-24
		s-24,10.745-24,24c0,4.418-3.582,8-8,8s-8-3.582-8-8c0-22.091,17.909-40,40-40s40,17.909,40,40S246.091,296,224,296z"/>
	<path style="fill:#505968;" d="M136,392c-22.08-0.026-39.974-17.92-40-40c0-4.418,3.582-8,8-8s8,3.582,8,8
		c0,13.255,10.745,24,24,24s24-10.745,24-24s-10.745-24-24-24H56c-4.418,0-8-3.582-8-8s3.582-8,8-8h80c22.091,0,40,17.909,40,40
		S158.091,392,136,392z"/>
	<path style="fill:#505968;" d="M120,264H24c-4.418,0-8-3.582-8-8s3.582-8,8-8h96c13.255,0,24-10.745,24-24s-10.745-24-24-24
		s-24,10.745-24,24c0,4.418-3.582,8-8,8s-8-3.582-8-8c0-22.091,17.909-40,40-40s40,17.909,40,40S142.091,264,120,264z"/>
	<path style="fill:#505968;" d="M440,448H336c-4.418,0-8-3.582-8-8s3.582-8,8-8h104c13.255,0,24-10.745,24-24s-10.745-24-24-24
		s-24,10.745-24,24c0,4.418-3.582,8-8,8s-8-3.582-8-8c0-22.091,17.909-40,40-40s40,17.909,40,40S462.091,448,440,448z"/>
</g>
<g>
</g>
<g>
</g>
<g>
</g>
<g>
</g>
<g>
</g>
<g>
</g>
<g>
</g>
<g>
</g>
<g>
</g>
<g>
</g>
<g>
</g>
<g>
</g>
<g>
</g>
<g>
</g>
<g>
</g>
</svg>
